<svg width="50" height="50" viewBox="0 0 50 50" fill="none" xmlns="http://www.w3.org/2000/svg">
<g id="icon-logout-outline">
<path id="Rectangle 81" d="M22 16C23.1046 16 24 15.1046 24 14V8H20V14C20 15.1046 20.8954 16 22 16V16Z" fill="#2734e1"/>
<path id="Rectangle 85" d="M22 34C23.1046 34 24 34.8954 24 36V42H20V36C20 34.8954 20.8954 34 22 34V34Z" fill="#2734e1"/>
<path id="Rectangle 83" d="M48 42V8H44V42H48Z" fill="#2734e1"/>
<path id="Rectangle 82" d="M26 6H42V2H26V6Z" fill="#2734e1"/>
<path id="Rectangle 86" d="M2 25C2 26.1046 2.89543 27 4 27H33C34.1046 27 35 26.1046 35 25V25C35 23.8954 34.1046 23 33 23H4C2.89543 23 2 23.8954 2 25V25Z" fill="#2734e1"/>
<path id="Rectangle 87" d="M2.41422 26.1421C3.19527 26.9232 4.4616 26.9232 5.24264 26.1421L13.7279 17.6569C14.509 16.8758 14.509 15.6095 13.7279 14.8284V14.8284C12.9469 14.0474 11.6805 14.0474 10.8995 14.8284L2.41422 23.3137C1.63317 24.0948 1.63317 25.3611 2.41422 26.1421V26.1421Z" fill="#2734e1"/>
<path id="Rectangle 88" d="M2.41422 23.4142C3.19527 22.6332 4.4616 22.6332 5.24264 23.4142L13.7279 31.8995C14.509 32.6805 14.509 33.9469 13.7279 34.7279V34.7279C12.9469 35.509 11.6805 35.509 10.8995 34.7279L2.41422 26.2426C1.63317 25.4616 1.63317 24.1953 2.41422 23.4142V23.4142Z" fill="#2734e1"/>
<path id="Rectangle 84" d="M26 48H42V44H26V48Z" fill="#2734e1"/>
<path id="Vector 13" d="M22 8.5C22 6 24 4 26.5 4" stroke="#2734e1" stroke-width="4"/>
<path id="Vector 14" d="M46 8.5C46 6 44 4 41.5 4" stroke="#2734e1" stroke-width="4"/>
<path id="Vector 16" d="M46 41.5C46 44 44 46 41.5 46" stroke="#2734e1" stroke-width="4"/>
<path id="Vector 15" d="M22 41.5C22 44 24 46 26.5 46" stroke="#2734e1" stroke-width="4"/>
</g>
</svg>
