<svg width="500" height="300" viewBox="0 0 500 300" fill="none" xmlns="http://www.w3.org/2000/svg">
<g id="graphic-landingpage">
<path id="Vector" d="M314.498 44.858C350.353 55.6967 397.847 56.9006 419.842 76.7643C441.768 96.5652 425.806 122.473 426.597 146.094C427.374 169.278 441.893 193.44 424.449 214.237C406.6 235.518 368.199 247.238 332.488 258.296C296.126 269.556 257.524 281.435 216.716 278.566C176.072 275.708 144.596 258.056 112.865 242.855C81.2821 227.725 50.1111 212.177 32.8465 190.484C14.2144 167.072 -3.25542 139.889 11.5504 115.552C26.1882 91.4899 77.0925 84.282 108.283 66.4827C140.417 48.1444 153.276 14.135 197.365 9.5116C241.464 4.88719 274.661 32.8157 314.498 44.858Z" fill="#91F6A7" fill-opacity="0.9"/>
<path id="Vector_2" d="M336.335 62.858C373.45 73.6967 422.612 74.9006 445.38 94.7643C468.076 114.565 451.553 140.473 452.372 164.094C453.177 187.278 468.205 211.44 450.149 232.237C431.673 253.518 391.922 265.238 354.958 276.296C317.318 287.556 277.359 299.435 235.118 296.566C193.046 293.708 160.465 276.056 127.619 260.855C94.9266 245.725 62.6607 230.177 44.7896 208.484C25.5029 185.072 7.41945 157.889 22.7453 133.552C37.8974 109.49 90.5899 102.282 122.876 84.4827C156.139 66.1444 169.45 32.135 215.088 27.5116C260.736 22.8872 295.099 50.8157 336.335 62.858Z" fill="#91F6C6" fill-opacity="0.9"/>
</g>
</svg>
